<?xml version="1.0" encoding="utf-8"?>
<!-- Generator: Adobe Illustrator 22.1.0, SVG Export Plug-In . SVG Version: 6.00 Build 0)  -->
<svg version="1.1" id="Layer_1" xmlns="http://www.w3.org/2000/svg" xmlns:xlink="http://www.w3.org/1999/xlink" x="0px" y="0px"
	 viewBox="0 0 512 512" style="enable-background:new 0 0 512 512;" xml:space="preserve">
<style type="text/css">
	.st0{fill:#C6C5CB;}
	.st1{fill:#E0E0E2;}
	.st2{fill:#DE0606;}
	.st3{fill:#FEDA44;}
	.st4{fill:#EEBF00;}
	.st5{fill:#57565C;}
</style>
<polygon class="st0" points="140.3,408.4 24.6,207.9 140.3,7.5 371.7,7.5 487.4,207.9 371.7,408.4 "/>
<polygon class="st1" points="151.7,388.6 47.4,207.9 151.7,27.3 360.3,27.3 464.6,207.9 360.3,388.6 "/>
<circle class="st2" cx="256" cy="217.6" r="52.9"/>
<ellipse transform="matrix(0.1602 -0.9871 0.9871 0.1602 0.1825 435.4545)" class="st2" cx="256" cy="217.6" rx="32.1" ry="32.1"/>
<path class="st2" d="M256,185.5c-0.1,0-0.2,0-0.3,0v64.3c0.1,0,0.2,0,0.3,0c17.7,0,32.1-14.4,32.1-32.1
	C288.1,199.9,273.7,185.5,256,185.5z"/>
<g>
	<circle class="st3" cx="161.7" cy="379.9" r="28.5"/>
	<circle class="st3" cx="210.9" cy="351.3" r="28.5"/>
	<circle class="st3" cx="260.6" cy="379.9" r="28.5"/>
	<circle class="st3" cx="345.7" cy="379.9" r="28.5"/>
	<circle class="st3" cx="382.1" cy="334.1" r="28.5"/>
	<circle class="st3" cx="354.9" cy="227.5" r="28.5"/>
	<circle class="st3" cx="400.8" cy="262" r="28.5"/>
	<circle class="st3" cx="316.7" cy="276.1" r="28.5"/>
	<circle class="st3" cx="174.5" cy="131.9" r="28.5"/>
	<circle class="st3" cx="326.4" cy="74.8" r="28.5"/>
	<circle class="st3" cx="159.7" cy="253" r="28.5"/>
	<circle class="st3" cx="302.8" cy="334.1" r="28.5"/>
	<circle class="st3" cx="163.7" cy="319.8" r="28.5"/>
	<circle class="st3" cx="174.5" cy="131.9" r="28.5"/>
</g>
<g>
	<path class="st4" d="M163.7,131.9c0-12.7,8.3-23.4,19.7-27.1c-2.8-0.9-5.7-1.4-8.8-1.4c-15.8,0-28.5,12.8-28.5,28.5
		s12.8,28.5,28.5,28.5c3.1,0,6-0.5,8.8-1.4C171.9,155.3,163.7,144.6,163.7,131.9z"/>
	<path class="st4" d="M315.6,74.8c0-12.7,8.3-23.4,19.7-27.1c-2.8-0.9-5.7-1.4-8.8-1.4c-15.8,0-28.5,12.8-28.5,28.5
		s12.8,28.5,28.5,28.5c3.1,0,6-0.5,8.8-1.4C323.9,98.2,315.6,87.5,315.6,74.8z"/>
	<path class="st4" d="M344.2,227.5c0-12.7,8.3-23.4,19.7-27.1c-2.8-0.9-5.7-1.4-8.8-1.4c-15.8,0-28.5,12.8-28.5,28.5
		S339.3,256,355,256c3.1,0,6-0.5,8.8-1.4C352.4,250.9,344.2,240.1,344.2,227.5z"/>
	<path class="st4" d="M390,262c0-12.7,8.3-23.4,19.7-27.1c-2.8-0.9-5.7-1.4-8.8-1.4c-15.8,0-28.5,12.8-28.5,28.5
		s12.8,28.5,28.5,28.5c3.1,0,6-0.5,8.8-1.4C398.2,285.4,390,274.7,390,262z"/>
	<path class="st4" d="M371.3,334.1c0-12.7,8.3-23.4,19.7-27.1c-2.8-0.9-5.7-1.4-8.8-1.4c-15.8,0-28.5,12.8-28.5,28.5
		s12.8,28.5,28.5,28.5c3.1,0,6-0.5,8.8-1.4C379.5,357.5,371.3,346.8,371.3,334.1z"/>
	<path class="st4" d="M291.9,334.1c0-12.7,8.3-23.4,19.7-27.1c-2.8-0.9-5.7-1.4-8.8-1.4c-15.8,0-28.5,12.8-28.5,28.5
		s12.8,28.5,28.5,28.5c3.1,0,6-0.5,8.8-1.4C300.1,357.5,291.9,346.8,291.9,334.1z"/>
	<path class="st4" d="M334.9,379.9c0-12.7,8.3-23.4,19.7-27.1c-2.8-0.9-5.7-1.4-8.8-1.4c-15.8,0-28.5,12.8-28.5,28.5
		s12.8,28.5,28.5,28.5c3.1,0,6-0.5,8.8-1.4C343.1,403.3,334.9,392.5,334.9,379.9z"/>
	<path class="st4" d="M249.7,379.9c0-12.7,8.3-23.4,19.7-27.1c-2.8-0.9-5.7-1.4-8.8-1.4c-15.8,0-28.5,12.8-28.5,28.5
		s12.8,28.5,28.5,28.5c3.1,0,6-0.5,8.8-1.4C258,403.3,249.7,392.5,249.7,379.9z"/>
	<path class="st4" d="M200,351.3c0-12.7,8.3-23.4,19.7-27.1c-2.8-0.9-5.7-1.4-8.8-1.4c-15.8,0-28.5,12.8-28.5,28.5
		s12.8,28.5,28.5,28.5c3.1,0,6-0.5,8.8-1.4C208.3,374.7,200,364,200,351.3z"/>
	<path class="st4" d="M150.8,379.9c0-12.7,8.3-23.4,19.7-27.1c-2.8-0.9-5.7-1.4-8.8-1.4c-15.8,0-28.5,12.8-28.5,28.5
		s12.8,28.5,28.5,28.5c3.1,0,6-0.5,8.8-1.4C159.1,403.3,150.8,392.5,150.8,379.9z"/>
	<path class="st4" d="M152.8,319.8c0-12.7,8.3-23.4,19.7-27.1c-2.8-0.9-5.7-1.4-8.8-1.4c-15.8,0-28.5,12.8-28.5,28.5
		s12.8,28.5,28.5,28.5c3.1,0,6-0.5,8.8-1.4C161.1,343.2,152.8,332.4,152.8,319.8z"/>
	<path class="st4" d="M148.9,253c0-12.7,8.3-23.4,19.7-27.1c-2.8-0.9-5.7-1.4-8.8-1.4c-15.8,0-28.5,12.8-28.5,28.5
		s12.8,28.5,28.5,28.5c3.1,0,6-0.5,8.8-1.4C157.1,276.4,148.9,265.6,148.9,253z"/>
</g>
<rect x="55.3" y="479.5" class="st5" width="401.4" height="25"/>
<path d="M381,407.3l29.5-51c2.1-2.6,3.8-5.6,5-8.7l80.6-139.6L376.1,0H135.9L15.9,207.9L131,407.3L92,472H47.8v40h416.4v-40H420
	L381,407.3z M140.7,379.9c0-11,8.6-20.1,19.4-20.9l-17.6,29.3C141.3,385.7,140.7,382.8,140.7,379.9z M159.8,274
	c-11.6,0-21-9.4-21-21s9.4-21,21-21s21,9.4,21,21S171.3,274,159.8,274z M163.7,298.8c11,0,20.1,8.5,20.9,19.4L172,339.1
	c-2.6,1.1-5.4,1.7-8.3,1.7c-11.6,0-21-9.4-21-21S152.1,298.8,163.7,298.8z M400.8,241c11.6,0,21,9.4,21,21s-9.4,21-21,21
	s-21-9.4-21-21S389.2,241,400.8,241z M354.9,248.5c-11.6,0-21-9.4-21-21s9.4-21,21-21s21,9.4,21,21S366.5,248.5,354.9,248.5z
	 M337.7,276.1c0,11.6-9.4,21-21,21c-0.7,0-1.3,0-1.9-0.1l-17.5-29c3.2-7.6,10.7-12.9,19.4-12.9C328.2,255.1,337.7,264.5,337.7,276.1
	z M302.8,355.1c-11.6,0-21-9.4-21-21s9.4-21,21-21c1.5,0,3,0.2,4.4,0.5l15.8,26.3C320.5,348.6,312.4,355.1,302.8,355.1z M256,263.1
	c-25.1,0-45.4-20.4-45.4-45.4c0-25.1,20.4-45.4,45.4-45.4s45.4,20.4,45.4,45.4C301.4,242.7,281.1,263.1,256,263.1z M256,278.1
	c8.8,0,17.2-1.9,24.8-5.3c-0.1,1.1-0.2,2.3-0.2,3.4c0,9.3,3.6,17.9,9.4,24.3c-13.6,5.1-23.3,18.3-23.3,33.7c0,3.7,0.6,7.2,1.6,10.6
	c-2.5-0.5-5.1-0.8-7.7-0.8c-5,0-9.7,1-14,2.8c-2.3-17.7-17.4-31.4-35.7-31.4c-2.6,0-5.1,0.3-7.6,0.8l26.5-44
	C237.7,275.9,246.6,278.1,256,278.1z M193.8,363.5c-0.6-1.2-1.2-2.3-1.9-3.4c-1.2-2.7-2-5.7-2-8.8c0-3.5,0.9-6.8,2.4-9.7
	c0.9-1.2,1.8-2.5,2.6-3.8c3.9-4.6,9.6-7.5,16.1-7.5c11.6,0,21,9.4,21,21s-9.4,21-21,21C203.8,372.4,197.6,368.8,193.8,363.5z
	 M153.4,399.1l21.5-35.7c1.5,1.2,2.9,2.6,4,4.2c0.6,1.2,1.2,2.3,1.9,3.4c1.2,2.7,2,5.7,2,8.8c0,11.6-9.4,21-21,21
	C158.7,400.9,155.9,400.3,153.4,399.1z M197.4,384.7c4.2,1.7,8.7,2.6,13.5,2.6c5,0,9.7-1,14-2.8c0.8,6,3.1,11.6,6.5,16.4h-40.5
	C194.3,396.2,196.6,390.7,197.4,384.7z M239.6,379.9c0-11.6,9.4-21,21-21s21,9.4,21,21s-9.4,21-21,21S239.6,391.4,239.6,379.9z
	 M295.1,369.3c2.5,0.5,5.1,0.8,7.7,0.8c3,0,5.9-0.4,8.6-1.1c-1.1,3.4-1.6,7-1.6,10.8c0,7.8,2.5,15.1,6.8,21h-26.7
	c4.3-5.9,6.8-13.2,6.8-21C296.6,376.2,296.1,372.6,295.1,369.3z M324.7,379.9c0-8,4.5-15,11.1-18.5l21.6,36
	c-3.4,2.3-7.4,3.6-11.8,3.6C334.2,400.9,324.7,391.4,324.7,379.9z M401.9,341.1l-3.8,6.6c-3.9,4.5-9.6,7.4-16,7.4
	c-11.6,0-21-9.4-21-21s9.4-21,21-21s21,9.4,21,21C403.1,336.6,402.7,338.9,401.9,341.1z M385.2,370l-3.6,6.3
	c-0.2-2.1-0.6-4.2-1.2-6.2c0.6,0,1.1,0,1.7,0C383.2,370.1,384.2,370.1,385.2,370z M366.8,379.9c0,1.1-0.1,2.2-0.3,3.3L352.6,360
	C360.8,362.8,366.8,370.7,366.8,379.9z M144.6,15h222.8l111.4,192.9l-64.1,110.9c-5.7-12.3-18.2-20.8-32.6-20.8
	c-19.9,0-36,16.2-36,36c0,3.4,0.5,6.7,1.4,9.8c-0.6,0-1.1,0-1.7,0c-0.9,0-1.9,0-2.8,0.1l-4.3-7.1c0.1-0.9,0.1-1.8,0.1-2.7
	c0-9.3-3.6-17.9-9.4-24.3c13.6-5.1,23.3-18.3,23.3-33.7c0-4.6-0.9-8.9-2.4-12.9c1.5,0.2,3.1,0.3,4.6,0.3c3.4,0,6.8-0.5,9.9-1.4
	c0.1,19.8,16.2,35.9,36,35.9c19.9,0,36-16.2,36-36s-16.2-36-36-36c-3.4,0-6.8,0.5-9.9,1.4c-0.1-19.8-16.2-35.9-36-35.9
	c-19.9,0-36,16.2-36,36c0,4.6,0.9,8.9,2.4,12.9c-1.5-0.2-3.1-0.3-4.6-0.3c-1.6,0-3.2,0.1-4.7,0.3c2.9-7,4.5-14.7,4.5-22.8
	c0-33.3-27.1-60.4-60.4-60.4s-60.4,27.1-60.4,60.4c0,18.6,8.4,35.2,21.6,46.3l-22.6,37.5c-4.4-7.4-11.4-13.1-19.6-15.8
	c12.3-5.8,20.8-18.2,20.8-32.6c0-19.9-16.2-36-36-36s-36,16.2-36,36c0,15.9,10.4,29.4,24.7,34.2c-12.3,5.8-20.8,18.2-20.8,32.6
	c0,12.1,6,22.9,15.2,29.4c-7.7,4.7-13.5,12.3-15.9,21.2L33.2,207.9L144.6,15z M143.3,415.9h225.4l33.8,56.1H109.5L143.3,415.9z
	 M449.2,497H62.8v-10h386.4V497L449.2,497z"/>
<path d="M256,178c-21.9,0-39.6,17.8-39.6,39.6s17.8,39.6,39.6,39.6s39.6-17.8,39.6-39.6S277.9,178,256,178z M256,242.3
	c-13.6,0-24.6-11.1-24.6-24.6S242.4,193,256,193c13.6,0,24.6,11.1,24.6,24.6S269.6,242.3,256,242.3z"/>
<path d="M174.5,167.9c19.9,0,36-16.2,36-36s-16.2-36-36-36s-36,16.2-36,36S154.7,167.9,174.5,167.9z M174.5,110.9
	c11.6,0,21,9.4,21,21s-9.4,21-21,21s-21-9.4-21-21S162.9,110.9,174.5,110.9z"/>
<path d="M326.4,110.9c19.9,0,36-16.2,36-36s-16.2-36-36-36s-36,16.2-36,36S306.5,110.9,326.4,110.9z M326.4,53.8
	c11.6,0,21,9.4,21,21s-9.4,21-21,21s-21-9.4-21-21S314.8,53.8,326.4,53.8z"/>
</svg>
